<?xml version="1.0" ?><svg xmlns="http://www.w3.org/2000/svg" width="204.8297mm" height="170.27419mm" viewBox="0 0 204.8297 170.27419">
    <path d="m 891.90181,802.97825 c 0,0 -3.3411,-9.09904 -3.21185,-12.00364 0.12905,-2.90461 3.78672,-2.55606 3.78672,-2.55606 l 1.5494,3.21444 c 0,0 -1.07599,-11.34738 -0.7317,-14.60054 0.34437,-3.25318 2.15179,-4.41502 2.15179,-4.41502 l 2.40966,6.81615 2.84025,-7.31963 1.89342,4.60867 6.62723,-7.39711 -0.37223,-63.21958 -8.6648,-0.1011 13.89974,-44.92475 124.70986,-0.50346 -2.045,-20.75835 11.7897,0.26982 1.3148,21.30182 12.0803,3.38718 15.547,39.94972 -10.0358,2.36869 2.3357,65.20611 c 0,0 9.2913,-3.20463 9.9799,-0.84219 0.6885,2.36242 1.007,8.18835 1.007,8.18835 0,0 3.1228,-1.20863 5.0593,0.61161 1.9365,1.82025 -2.7201,10.39217 -2.7201,10.39217 0,0 2.3575,-1.38727 2.9599,1.78844 0.6025,3.1757 1.1231,8.87278 -0.7271,10.18951 -1.8505,1.31675 -15.9382,2.76384 -15.9382,2.76384 l -70.96957,-0.46324 z" fill="#FFFFFF" paint-order="fill markers stroke" transform="translate(418.29192,244.96337) translate(-1303.6742,-881.82222)"/>
    <path d="m 1047.0129,636.89041 c -0.8453,-0.0594 -1.9055,-0.0309 -3.2429,0.0517 -2.7976,0.17292 -4.1848,0.41701 -7.7124,0.64404 -3.274,0.21072 -1.6515,6.80548 -1.6372,12.18929 l 0.3012,9.71261 -19.1808,-0.0414 c -113.47588,-0.24424 -105.61326,-0.49788 -107.67291,3.47868 -2.46121,4.75189 -10.08964,34.14365 -10.76378,39.28652 -0.68182,5.20163 -1.49368,6.02577 3.63247,5.92637 l 4.70633,-0.0919 0.7852,30.43476 c 0.67932,26.30281 0.61705,30.53379 -0.46382,31.16705 -0.88314,0.51744 -1.32911,0.29562 -1.51627,-0.7575 -0.3695,-2.07955 -1.72796,-3.68606 -3.15222,-3.72698 -1.11439,-0.032 -3.32953,0.76978 -3.50643,5.49407 -0.12366,3.30185 -0.75998,1.52312 -1.02092,0.61631 -0.17464,-0.60682 -1.12221,-1.10795 -2.04057,-1.13433 -2.23526,-0.0642 -3.58118,3.34601 -3.93497,9.96971 -0.24738,4.63202 -0.51458,5.3657 -2.01284,5.53693 -1.53294,0.17512 -3.11374,0.77774 -3.19637,5.74109 -0.061,3.66881 1.856,7.03305 2.94808,9.68739 1.4477,5.98851 6.4383,4.48578 11.84014,4.98362 11.90494,1.09611 74.15459,1.30598 100.88478,0.8248 10.184,-0.18342 32.6576,0.22518 44.0546,0.24692 12.9341,0.0249 21.2326,-0.11661 27.8352,-0.22519 11.6858,-0.19318 12.1687,-0.99314 14.5894,-3.2786 3.4966,-3.30137 3.5736,-7.77582 0.1902,-11.12298 l -2.4792,-2.45273 1.7823,-3.25938 c 2.9465,-5.39123 2.1285,-8.91186 -2.0986,-9.03325 -1.6312,-0.0468 -1.9653,-0.51602 -1.9032,-2.67581 0.1468,-5.11706 -4.9836,-8.23551 -10.4323,-6.34105 l -2.1401,0.74362 -0.1,-15.22555 c -0.051,-7.66451 -0.1239,-21.00481 -0.1537,-29.64578 l -0.054,-15.71084 3.3906,0.0971 c 5.6892,0.1634 5.9987,-1.10501 2.7652,-11.31582 -1.5526,-4.9027 -3.8971,-13.19183 -5.2105,-18.41942 -3.779,-15.041 -5.8824,-17.84796 -13.5365,-18.06777 -4.5725,-0.13123 -5.6896,-1.29026 -5.561,-5.76881 0.055,-1.9472 -0.2197,-5.65421 -0.6125,-8.23796 -0.3928,-2.58372 -0.8051,-5.47417 -0.9163,-6.42421 -0.3187,-2.72028 -0.9173,-3.69703 -3.4536,-3.87571 z m -6.6838,4.06352 c 0.5667,-0.0219 1.317,-0.008 2.2977,0.0219 1.3948,0.042 2.7907,0.0832 4.1858,0.12487 l -0.1576,9.45928 -0.1563,9.46052 -2.7981,-0.0808 -2.7969,-0.0808 -0.7651,-7.55354 c -0.4203,-4.15459 -0.9746,-8.43204 -1.2313,-9.50464 -0.3281,-1.37088 -0.2784,-1.77799 1.4217,-1.84647 z m -121.9773,24.08838 69.18819,-0.58453 c 72.07501,-0.60893 73.10151,2.86237 73.54111,4.44148 0.2492,0.89547 1.9532,5.66411 3.4459,11.82391 1.4928,6.1598 2.7964,10.17012 2.7918,10.32601 0,0.15586 -8.8591,0.01 -20.8037,-0.32519 -11.9445,-0.33495 -33.1512,-0.36321 -47.12611,-0.0618 -13.97485,0.30146 -34.12766,0.67719 -44.78435,0.83438 -10.65671,0.15707 -26.07709,0.54024 -34.26762,0.85202 -8.19056,0.31175 -13.27378,0.48747 -13.52205,0.22457 -0.24826,-0.26296 0.0727,-0.98643 0.81797,-3.022 0.74512,-2.03558 2.72421,-8.89113 4.39751,-15.23441 l 2.00997,-5.19483 c 1.57033,-4.19266 1.54387,-4.14597 4.31138,-4.07965 z m 104.8989,30.87871 c 8.6043,0.0147 17.0966,0.11025 23.4005,0.28359 l 22.0024,0.63019 c 0.496,2.13531 1.8173,3.38698 1.8098,5.60287 -0.04,1.39423 -20.6542,1.48088 -77.84901,0.31765 -39.83567,-0.81023 -59.12071,-0.75015 -83.28818,0.26089 -6.21866,0.42969 -7.10948,1.81234 -5.21104,-3.29116 1.42477,-3.81871 1.51585,-3.88698 4.61557,-3.39296 4.17859,0.66592 59.47958,0.48564 90.44895,-0.2083 6.75081,-0.15121 15.46681,-0.21756 24.07101,-0.20292 z m -95.56183,12.56363 c 12.37131,0.0123 35.86908,0.23195 60.35905,0.58229 32.65328,0.46712 63.24958,0.6537 67.99078,0.41592 4.7411,-0.2378 7.8013,-0.094 7.8606,-0.058 0.059,0.0359 0.05,11.49079 -0.022,25.45492 -0.072,13.96415 0.078,31.52742 0.3328,37.45264 0.854,16.84971 0.9043,17.12797 -0.4946,17.14525 -16.0989,0.0607 -31.9488,-0.47626 -48.0211,-0.94103 l -0.8622,-10.24071 c -0.4031,-4.78859 -0.9867,-9.18371 -1.1859,-11.39271 -0.1232,-1.36431 -0.4134,-1.24663 0.518,-1.8137 0.7475,-0.45526 1.5815,-1.17738 0.6868,-3.15225 -1.3067,-2.88446 -2.9633,-5.98751 -4.2361,-8.01611 -2.3869,-3.80426 -1.2383,-3.42543 -6.7281,-3.41821 -2.6586,0.002 -14.60273,-0.11342 -20.36916,-0.0744 -7.77166,0.0525 -7.3637,-0.0196 -10.79403,8.60093 -1.67403,4.20636 -2.40705,7.02571 0.15124,7.14392 0.53713,0.0249 2.09595,-0.12097 2.05949,0.82054 -0.0668,1.72199 0.017,4.72668 -0.15634,10.73856 l -0.31887,11.13684 -11.31105,0.0788 c -11.93836,0.0833 -37.59001,-0.70229 -46.08563,-0.16648 l -3.91849,0.3111 -0.0771,-6.5254 c -0.22773,-19.25555 -0.54008,-60.73898 -1.86916,-70.99931 l -0.34662,-2.67582 8.5514,-0.34585 c 1.27536,-0.0517 4.16333,-0.0656 8.28711,-0.0618 z m 25.47257,3.63877 c -0.52331,0.0244 -1.14184,0.20244 -1.84521,0.53565 -1.94663,0.92217 -22.82169,0.9861 -27.91903,-0.36678 -2.65275,-0.70406 -2.56877,0.15209 -3.18031,13.53828 -0.59399,13.00252 0.28917,14.7131 1.81207,15.58528 1.86318,1.06706 31.03221,2.19781 32.51766,1.33768 0.53718,-0.31105 1.18024,-1.72048 1.4293,-3.1321 1.35915,-7.70408 0.35307,-25.44292 -1.53768,-27.10604 -0.32458,-0.28552 -0.75348,-0.41628 -1.2768,-0.39197 z m 23.91096,0.30248 c -1.95533,0.14903 -3.02747,2.86203 -3.42955,13.99669 -0.27492,7.61373 -0.65185,14.74935 -0.48145,16.19481 0.14757,1.25304 0.4496,4.65619 6.75697,0.60246 1.54185,-0.99092 2.33711,-1.86913 3.64759,-1.89689 2.8863,-0.061 19.99554,-0.6171 22.77664,0.97555 1.431,0.81956 3.1605,2.22597 5.0176,1.08396 2.7697,-1.97364 0.8463,-11.92039 1.2566,-15.07056 -0.209,-14.45388 -0.3861,-15.72338 -3.4661,-15.06802 -1.8913,0.34224 -4.8966,1.3941 -7.1086,1.33601 -1.6864,-0.0442 -13.62916,-0.16024 -18.70175,-0.5634 -1.55712,-0.12367 -3.5239,-0.93037 -4.01057,-1.10283 -0.85604,-0.30337 -1.60559,-0.53743 -2.25738,-0.48778 z m 80.0754,0.5092 c -0.7605,-0.056 -1.7855,0.31831 -3.248,1.02219 -1.803,0.86765 -5.4354,1.00862 -14.8223,0.57348 -6.8387,-0.31705 -13.1217,-0.25787 -13.9614,0.13219 -1.3394,0.62244 -1.5655,2.10403 -1.8414,12.07588 -0.4306,15.55268 0.2173,17.91353 5.4512,16.0549 0.6945,-0.24664 3.6701,-1.37602 5.2961,-1.29065 5.605,0.29426 13.4371,0.43446 15.7272,0.54324 1.8845,0.0894 2.8726,0.65933 4.3422,1.76579 2.8278,2.12929 5.2049,1.27544 5.2407,0.32269 0.051,-1.34826 1.2527,-21.66027 0.208,-26.86408 -0.593,-2.95348 -1.1247,-4.24241 -2.3922,-4.33576 z m -132.73469,2.25738 c 0.34677,-6.6e-4 0.8021,0.1678 1.40029,0.41716 1.21137,0.50522 0.81228,9.34915 0.74994,15.76124 -0.0648,6.66679 -0.88301,6.51245 -1.58433,6.49231 -1.39017,0.0261 -1.68509,-0.48966 -1.68768,-3.31482 -0.002,-3.4566 0.0739,-6.47729 0.0465,-12.43129 -0.0246,-5.40193 0.0348,-6.92269 1.07515,-6.9246 z m 28.33114,0.17902 c 0.25183,0.0443 0.45371,0.1566 0.5445,0.32643 0.59186,1.10685 0.77334,20.39307 0.20414,21.70402 -0.69145,1.59259 -2.18244,2.54112 -3.07282,1.95486 -1.14354,-0.75296 0.26306,-23.4759 1.47969,-23.90338 0.29127,-0.10249 0.59265,-0.12634 0.84447,-0.0819 z m 24.71762,0.58733 c 0.0768,-0.0973 0.98709,0.0714 2.02294,0.37435 1.03581,0.3029 1.79404,0.98657 1.68514,1.52001 -0.10903,0.53348 -0.53242,5.17493 -0.94151,10.31511 -0.67716,8.50832 -0.92389,9.45761 -2.74513,10.58982 l -2.00026,1.24402 0.92009,-11.93343 c 0.5057,-6.56314 0.98199,-12.01248 1.05873,-12.10988 z m 78.88303,0.29494 c 0.8961,0.0259 0.4546,22.65152 -0.4588,23.51393 -1.5209,1.436 -2.0136,0.064 -1.9006,-5.29114 0.067,-3.19372 -0.091,-8.41538 -0.3542,-11.60446 -0.4758,-5.7846 -0.1008,-6.69914 2.7136,-6.61833 z m -28.2732,0.54702 c 0.1329,-0.002 0.2843,0.0271 0.455,0.0769 1.3005,0.38027 1.4435,1.68736 1.1823,10.78519 -0.2528,8.80341 -0.8862,12.27012 -1.9876,10.88101 -0.1347,-0.16951 -0.3418,-5.21155 -0.4601,-11.20366 -0.1736,-8.80127 -0.1205,-10.51583 0.8104,-10.53941 z m -19.1378,0.0668 c 0.799,0.0838 0.7611,1.2307 0.5167,5.51295 -0.3882,6.8086 0.4589,14.2252 0.076,16.83384 -0.2439,1.661 -2.4408,-0.53395 -2.6076,-0.71464 -0.7184,-0.77798 -1.7196,-20.38753 -1.2151,-20.76628 0.097,-0.0732 1.0551,-0.37645 2.1288,-0.67305 0.4755,-0.13146 0.8352,-0.22073 1.1016,-0.19293 z m -79.38343,0.0477 8.12702,0.23438 8.12576,0.23317 0.33276,7.88883 c 0.18293,4.33885 0.29623,9.18332 0.25083,10.76629 l -0.0832,2.87874 -7.68968,-0.22049 c -4.22945,-0.12147 -7.85204,-0.51645 -8.05013,-0.87723 -0.19804,-0.36077 -0.50721,-5.21094 -0.68692,-10.77891 z m 55.4952,0.49157 c 0.42004,-0.0518 1.00035,-0.0123 1.79857,0.10217 l 5.68061,0.29242 c 4.94638,0.25522 9.10485,0.54137 9.23875,0.68314 0.4059,0.42999 0.1768,18.66532 -0.2395,19.05842 -0.2133,0.20122 -4.1537,0.2582 -8.75605,0.1261 l -8.36776,-0.24073 -0.32141,-6.6801 c -0.17658,-3.67417 0.0264,-8.20769 -0.0366,-10.04787 -0.0741,-2.16933 -0.25688,-3.13828 1.00326,-3.29341 z m 50.72583,0.3201 c 4.133,0.0668 8.5005,0.46069 12.362,0.44999 1.6716,0.14536 1.792,-0.3456 1.8629,1.65866 l -0.1035,8.83287 -0.2445,8.47489 c -0.043,1.48555 -0.1207,1.36345 -1.66,1.25031 l -5.9868,-0.17269 -6.4129,-0.1839 c -1.4152,-0.0408 -1.2595,-0.18536 -1.2415,-1.65111 l -0.2395,-8.42197 c -0.093,-3.31827 -0.1396,-6.30747 -0.1336,-8.18875 0,-1.49981 -0.182,-2.27829 1.7973,-2.04817 z m -97.547,1.20496 c -2.11938,-0.0451 -4.25174,0.12511 -4.9546,0.54324 -0.8192,0.48729 -1.12362,2.78933 -1.10158,8.34883 l 0.0244,5.90118 c 0.005,1.53847 -0.24805,1.92196 1.43687,1.8906 l 3.40683,0.27729 c 3.28072,0.26724 5.2342,0.0196 6.07132,-0.77137 1.5047,-1.42072 1.49735,-14.39751 -0.01,-15.43605 -1.67551,-0.60344 -3.40426,-0.71666 -4.87369,-0.75372 z m 52.65428,0.64785 c -0.61929,-0.008 -1.24407,0.01 -1.86541,0.0505 -2.14728,0.14196 -3.30685,-0.39308 -2.99469,2.06202 l 9.6e-4,3.67024 c 0.002,9.41158 0.0775,9.53245 6.08896,9.70506 2.86038,0.0823 6.00123,-0.25029 6.98006,-0.73861 1.58664,-0.79143 1.73384,-1.41775 1.34994,-5.77133 -0.2369,-2.68604 -0.60256,-5.54581 -0.81176,-6.35491 -0.36991,-1.43105 -4.4134,-2.57854 -8.74837,-2.62287 z m 54.07222,0.74109 c -0.7329,-0.0287 -1.6736,-0.022 -2.8914,0.002 l -3.3123,0.0645 c -2.0411,0.0396 -2.1029,-0.0219 -2.0204,2.14267 l -0.3567,10.4449 c -0.027,2.81055 -0.3218,3.169 2.7035,2.99724 3.2489,0.0249 5.9216,0.7931 8.2922,-0.41217 1.8768,-3.38248 0.239,-9.56139 0.4373,-13.35008 -0.327,-1.37797 -0.6538,-1.80263 -2.8522,-1.88934 z m -108.90447,1.08521 c 1.72728,0.0495 2.13869,0.49078 2.08849,2.23972 -0.047,1.64322 0.13586,2.75692 -2.16032,2.8006 -1.48108,0.028 -1.83663,-0.73907 -1.78346,-2.07082 0.10462,-2.61854 -0.39976,-3.03424 1.85529,-2.9695 z m 5.16134,0.14879 c 0.73057,0.0422 1.14737,0.15463 1.04738,2.80561 -0.0666,1.7629 -0.38407,1.882 -1.03856,1.93218 -1.64957,0.1266 -1.42033,-0.01 -1.36123,-2.62538 0.0398,-1.76152 -0.0961,-2.19613 1.35241,-2.11241 z m 98.57423,0.24829 c 1.3064,0.0375 1.6817,0.63209 1.6259,2.5775 -0.04,1.39121 -0.028,3.2238 -1.0966,3.26064 -1.3809,0.0476 -1.8364,0.52811 -1.7771,-3.07663 0.04,-2.43323 -0.2043,-2.80321 1.2478,-2.76151 z m -50.2028,9.5e-4 c 0.32101,0.01 0.69271,0.0531 1.11294,0.12732 2.03172,0.35807 2.55604,0.88131 2.50945,2.5044 -0.0456,1.59155 -0.52034,2.03977 -2.11622,1.99395 -0.6503,-0.0196 -2.01403,0.17462 -2.46534,-0.13611 -0.90126,-0.62071 -0.57365,-2.15734 -0.52809,-3.74462 0.0146,-0.52554 0.52431,-0.77697 1.48726,-0.7449 z m 55.1209,0.34912 c 0.741,-0.0122 1.0582,0.59408 1.0083,2.33049 -0.053,1.83382 0.088,2.97558 -1.4054,2.93798 -0.969,-0.0244 -1.1653,-0.19853 -0.9566,-3.14343 0.1524,-2.14945 0.116,-2.10502 1.3537,-2.12504 z m -48.4811,0.6529 c 1.14202,0.0416 1.30987,0.3613 1.27425,2.08594 -0.0192,0.95583 0.42439,1.66728 -1.33984,1.68264 -1.29646,0.0122 -1.37785,0.31809 -1.24025,-1.757 0.13396,-2.01858 -0.12927,-2.06393 1.30584,-2.01158 z m -6.84019,6.06628 c 0.22317,-0.008 0.5266,0.01 0.93646,0.017 1.41373,0.0287 2.1514,-0.14316 2.16913,0.81168 0.0511,2.74386 0.35239,2.7288 -1.8074,2.74138 -1.96582,0.0122 -1.76378,-0.45929 -1.84395,-1.97127 -0.071,-1.33737 -0.12364,-1.57705 0.54576,-1.59944 z m 7.08465,0.24453 c 1.72717,-0.0683 1.25202,0.46444 1.26926,1.7305 0.0124,0.97431 0.12047,1.7074 -1.32222,1.76077 -1.10496,0.0409 -1.15303,0.0427 -1.06627,-1.68513 0.0708,-1.4165 -0.67538,-1.73534 1.11923,-1.80614 z m -60.30863,0.039 c 1.33873,0.0147 1.13607,0.505 1.10916,2.18425 -0.0244,1.46838 0.34552,2.11697 -0.82179,2.12756 -1.3605,0.0123 -1.75431,-0.20902 -1.63222,-2.304 0.10634,-1.8265 0.29186,-2.01943 1.34485,-2.00781 z m 4.40005,0.12609 c 1.90507,0.017 1.25542,0.44164 1.25283,2.16031 -0.002,1.82453 -0.21366,2.19101 -1.37636,2.14017 -0.72593,-0.0318 -0.87107,-0.12733 -0.79782,-2.1742 0.0424,-1.18233 -0.5232,-2.13855 0.92135,-2.12628 z m 99.41242,0.27352 c 1.6177,0.0122 1.3095,0.16512 1.2288,2.18677 -0.052,1.33738 0.1146,2.12982 -1.3524,2.11369 -1.2848,-0.0147 -1.3787,-0.34014 -1.2276,-2.18805 0.1517,-1.85358 -0.096,-2.12377 1.3512,-2.11241 z m 4.5625,0.41214 c 1.7029,0.0375 1.1519,0.49797 0.9215,2.05067 -0.1,0.67132 0.2949,1.57277 -1.0108,1.61834 -1.1778,0.0412 -1.0097,-1.06988 -0.9757,-1.82885 0.063,-1.41806 -0.1729,-1.86745 1.065,-1.84016 z m -50.96751,23.74002 10.25331,0.31509 c 2.0832,0.0597 2.702,0.12342 3.6929,2.16663 l 0.876,1.80613 c 1.6909,3.48651 2.2349,3.43691 -2.8989,3.3602 -2.5263,-0.0724 -9.71672,0.14927 -15.97804,0.49284 -4.10212,0.22511 -7.79357,0.33965 -9.91424,0.32644 -1.69404,-0.0122 -2.37483,0.0722 -1.73431,-2.31282 l 1.15828,-4.31309 c 0.44193,-1.64547 0.95197,-1.88764 2.72122,-1.76204 z m -43.77145,5.5182 c -9.59126,0 -24.78753,0.16659 -26.07379,0.26719 -1.0687,0.0836 -3.5108,-0.43044 -3.53848,2.20467 -0.0307,2.91689 0.17578,5.81424 0.18432,9.86821 0.0196,9.41363 -0.16659,10.99907 1.05621,12.0746 2.00307,1.76192 38.61245,2.17004 39.88484,0.42783 0.47324,-0.64805 0.72917,-4.23521 0.57473,-8.06149 -0.15317,-3.79183 -0.25871,-9.57635 -0.19797,-11.77897 0.13073,-4.76554 -0.12068,-4.38163 -4.88944,-4.80911 -2.62449,-0.14345 -4.90367,-0.17594 -7.00042,-0.19293 z m 88.80216,1.27551 c -6.7642,0.0654 -13.9842,0.13919 -15.0946,0.52912 -1.0936,0.384 -1.282,2.52386 -1.0823,11.63278 0.1303,5.9338 0.6307,11.84574 1.0836,12.32534 0.7434,0.78747 32.3677,0.85527 35.4668,-0.007 1.3461,-0.37431 1.4081,-4.46735 0.4343,-14.84298 l -0.1397,-6.33636 c -0.066,-3.01059 -1.6351,-3.20087 -4.2771,-3.16844 -5.8771,-0.16045 -11.3868,-0.17788 -16.391,-0.13276 z m -113.7918,2.80245 c 0.30823,-0.0473 0.73949,-0.031 1.34357,0.0353 l 15.14869,0.2156 14.78192,0.20928 c 2.79683,0.0397 2.5331,0.17292 2.19181,3.04131 -0.37938,4.03766 -0.1339,7.62283 -0.23438,11.91076 -0.0399,1.65471 0.20756,2.54236 -1.92717,2.35567 l -4.99493,0.27603 c -3.08337,0.21122 -10.10768,0.2993 -15.61,0.19658 l -7.90896,-0.14755 c -1.8914,-0.0353 -3.33843,-0.022 -3.3867,-2.0721 0.14244,-4.97689 0.43176,-8.52552 -0.19291,-13.50387 0.0476,-1.65918 -0.13587,-2.37492 0.78901,-2.51701 z m 131.7693,2.58015 -0.1878,6.54638 -0.1812,6.31407 c 0.041,1.80738 0.1579,2.33628 -1.5706,2.38425 l -7.7278,0.21464 c -5.0934,0.14195 -15.1458,0.13366 -18.0604,0.28912 -1.9055,0.23586 -1.815,0.0948 -2.0255,-1.69151 -0.2114,-3.44661 -0.7328,-11.82382 -0.9448,-13.13184 -0.01,-2.17579 -0.07,-2.34378 1.2537,-2.33024 l 8.624,0.24681 c 5.6447,0.16219 12.6496,0.11463 15.5659,-0.10585 l 3.4697,-0.26226 c 1.8718,-0.24098 1.8366,-0.27222 1.7849,1.52654 z m -128.85653,-0.44495 c -0.56796,0.0655 -0.83689,0.39441 -0.7222,1.53893 l -0.15511,5.38064 -0.13099,4.56893 c -0.0629,2.19558 -0.32224,2.50017 2.04814,2.34183 l 10.36171,0.15121 c 6.86188,0.10022 13.35323,-0.01 14.42524,-0.24704 1.76566,-0.38944 1.96386,-0.94454 2.1061,-5.89864 0.10366,-3.60931 -0.23854,-5.81619 -1.0058,-6.49105 -0.7929,-0.69748 -5.36622,-1.06806 -14.38488,-1.1646 l -10.71335,-0.11463 c -0.4367,-0.005 -0.82762,-0.0424 -1.1646,-0.0645 -0.25275,-0.017 -0.47493,-0.0219 -0.66423,-9.5e-4 z m 81.33653,-0.28067 c 0.4839,-0.0147 1.1175,-0.01 1.3784,0.0796 1.0078,0.34659 0.6828,0.86012 0.7071,13.35516 0,1.83842 -0.085,8.10535 -0.025,9.45547 0.052,1.17583 -2.3237,0.87189 -2.3268,-0.55456 -0.01,-4.37743 -0.3639,-15.94669 -0.6062,-17.86232 -0.2446,-1.93473 -0.3772,-4.53567 0.8727,-4.4732 z m 40.0143,0.94994 c -2.3773,-0.0244 -8.9893,0.14584 -12.5463,0.0798 -8.3815,0.22391 -8.6952,-0.66556 -8.4411,2.45372 0.092,1.13062 0.061,3.95263 0.2577,6.0007 l 0.2996,3.1283 c -0.026,1.99512 0.5555,1.61336 2.3516,1.57395 l 9.983,-0.21904 c 6.698,-0.14756 11.2121,-0.10731 12.1954,-0.13512 0.4101,-0.0122 1.4199,-0.01 1.4293,-1.33812 0.013,-1.56904 0.013,-3.34386 0.064,-5.14395 0.1229,-4.28425 -0.1498,-5.69715 -1.1861,-6.12929 -0.3702,-0.15439 -2.0303,-0.24664 -4.4076,-0.27099 z m -46.5298,-0.65999 c 2.071,0.0375 2.0448,0.11563 2.1503,2.06203 0.536,5.88482 0.641,14.32791 0.7637,21.23387 0.015,0.88535 -1.1211,0.66981 -1.3057,0.54827 -0.4647,-0.30594 -0.8063,-1.9847 -0.7588,-3.73076 0.047,-1.74606 -0.1948,-5.58376 -0.4512,-8.45852 -0.2804,-3.1452 -0.3801,-4.75174 -0.4274,-7.10609 -0.05,-2.48451 -0.6752,-2.98842 -2.0594,-2.9695 l -11.89304,0.16268 c -1.23935,0.017 -2.96441,-0.12464 -2.9758,1.81875 -0.0122,1.9237 -0.22951,1.43255 0.029,9.47187 0.14828,4.61355 0.64167,8.10409 0.49154,10.53564 -0.0383,0.62044 -0.89445,0.53552 -1.4192,0.71338 -1.14734,0.38892 -1.72464,-22.16862 -0.59489,-23.24547 0.3993,-0.38061 0.52554,-0.75498 2.48297,-0.7449 5.34098,0.18001 10.78339,-0.36937 15.96802,-0.29114 z m -72.83716,1.48051 c 0.26587,-0.002 0.62691,0.022 1.11797,0.0492 2.09229,-0.005 2.98722,-0.0333 4.99746,0.0314 2.98737,0.0954 3.52501,-0.39616 3.60852,1.71793 0.0927,2.34677 -0.0634,2.30774 -3.70684,2.17167 -2.68617,-0.10052 -3.80332,-0.03 -5.518,0.0196 -1.49964,0.0427 -1.2514,-1.06528 -1.24274,-2.48174 0.008,-1.23151 -0.0541,-1.49737 0.74363,-1.50742 z m 16.00575,0.38821 c 2.01024,0.0642 3.63667,0.21413 5.12602,0.25838 1.10188,0.0327 2.41017,0.15317 2.33551,2.19561 -0.0553,1.51617 -2.52891,1.17769 -6.71538,1.05747 -5.01708,-0.14415 -4.4948,-0.36451 -4.45045,-1.90823 0.0416,-1.45218 -0.68858,-1.70172 3.7043,-1.60323 z m 33.36539,-0.68895 c 0.94431,0.0312 1.17464,2.45123 1.10789,11.65233 -0.0553,7.62243 -0.39121,11.60365 -0.97806,11.5868 -0.55147,-0.0147 -0.81056,-2.94533 -0.67558,-7.64555 0.12048,-4.19135 0.0244,-9.42378 -0.21439,-11.62714 -0.33501,-3.10406 -0.16342,-3.9975 0.76001,-3.96644 z m 53.17462,1.49432 c 0.7,-0.0219 3.2033,-0.0443 4.3501,-0.0122 3.7269,0.10708 3.5843,0.0147 3.5197,1.33111 -0.045,1.87936 0.1689,2.14946 -1.2463,2.1416 -0.8074,-0.005 -4.4787,-0.005 -5.8224,-0.017 -3.3265,-0.0314 -3.1527,0.15341 -3.269,-1.84629 0.192,-1.81996 0.18,-1.57627 2.4679,-1.59694 z m 12.5016,0.19537 c 0.7295,0.0558 2.3986,-0.0271 3.4976,0.005 5.1268,0.14731 4.6777,-0.34361 4.6354,1.61025 -0.034,1.58856 -0.2258,1.81214 -2.6085,1.7746 -1.8308,-0.0287 -4.1238,-0.11243 -5.7203,-0.15828 -2.4728,0.01 -2.675,0.28336 -2.7193,-1.91372 -0.098,-1.37574 0.1956,-1.52515 2.9151,-1.3172 z m 28.6754,4.04977 c 0.418,-0.005 0.894,0.0403 1.4319,0.10828 4.2916,0.0363 2.6756,2.90165 2.7187,6.578 0.3363,5.8874 -0.8792,7.58328 3.9915,4.10133 3.6745,-2.63939 3.8735,-1.42249 0.6833,4.17694 -2.8418,4.98747 -2.848,5.58274 -0.056,5.99949 5.3172,0.79355 5.0886,6.81378 -0.3201,8.42826 -2.5346,0.75653 -9.6837,0.41624 -10.3781,-0.49407 -0.094,-0.12439 -0.3938,-6.23734 -0.6643,-13.58328 0.4405,-4.32126 -1.1983,-15.14422 2.5927,-15.31505 z m -84.30501,-2.01365 4.67859,0.13487 4.67857,0.13487 0.23568,3.54046 c 0.20458,3.07539 0.47903,7.86202 0.37305,11.55027 l -0.111,3.86058 -4.22737,-0.12219 -4.22608,-0.12098 -0.34661,-6.68136 c -0.1905,-3.67452 -0.506,-7.94394 -0.70079,-9.48824 z m 43.39771,2.95769 c 0.6256,0.0123 3.3225,0.0739 4.4025,0.16731 3.3359,0.28868 2.6187,-0.0121 2.8498,1.79879 0.1517,1.19044 0.4478,2.05007 -1.4405,2.11682 -0.8945,0.0318 -3.158,0.22684 -4.5413,0.18707 -3.0397,-0.0873 -2.9834,0.17465 -3.3073,-2.29263 -0.2915,-2.22056 0.1601,-2.01616 2.0368,-1.97756 z m -103.21248,0.005 c 0.26824,-0.08 0.7194,0.0485 1.47464,0.11977 1.96236,0.16731 3.79065,0.0219 5.84447,-0.0429 3.17276,-0.0579 2.53733,0.44351 2.60018,2.41111 0.0546,1.71263 -0.65514,1.62816 -1.98385,1.59691 -1.06449,-0.0254 -3.42374,-0.008 -5.22182,0.0403 -3.10391,0.0828 -3.19104,0.7018 -3.12452,-1.68262 l 0.0366,-1.31207 c 0.0219,-0.76171 0.1061,-1.05063 0.37434,-1.13058 z m 13.87442,0.32267 c 0.76638,-0.0827 2.11659,0.15976 4.41012,0.2256 3.80516,0.10928 5.35974,-0.27179 5.41213,1.72044 0.0298,1.12945 0.24341,1.80694 -2.4439,1.94604 -1.42272,0.0736 -3.51057,0.14316 -5.46886,0.0871 -1.89932,-0.0546 -2.74982,-0.18439 -2.81824,-2.25106 -0.041,-1.23744 0.14244,-1.64531 0.90875,-1.72802 z m 101.80326,0.0147 c 0.702,-0.0219 3.7869,0.0707 4.9445,0.0841 2.9529,0.0338 2.9486,0.017 2.9406,1.33004 -0.015,2.27771 0.5853,1.91451 -3.839,1.99973 -1.9348,0.0374 -3.3137,-0.017 -5.1405,-0.0621 -1.6464,-0.041 -1.6723,-1.07924 -1.6994,-1.89943 -0.056,-1.70389 0.5441,-1.52199 2.7938,-1.45231 z m -150.2957,2.8901 c 0.29205,-0.0244 0.61664,0.79381 0.91126,2.65816 1.16344,7.3619 3.66498,9.44817 4.73405,3.94881 0.5406,-2.78081 1.31605,-4.38419 2.40988,-1.28054 1.50081,4.25853 3.12675,1.97488 3.92361,-4.06353 0.20439,-0.94099 0.5367,2.36121 0.73858,7.33801 0.20195,4.97684 0.4301,9.70982 0.63085,11.61232 0.20074,1.90249 0.0695,3.73948 -0.29241,4.08115 -0.36188,0.34171 -4.23986,0.51769 -8.61733,0.39199 -4.19451,-0.1205 -7.18877,0.69661 -8.38287,-2.82329 -0.2334,-1.42699 -1.24259,-2.68536 -1.45767,-4.23015 -0.38134,-2.7389 0.0828,-3.61669 1.98133,-1.10286 4.44482,5.35051 2.7994,-2.5882 2.60145,-6.38138 -0.31205,-5.97961 0.17684,-10.09754 0.81927,-10.14869 z m 102.16863,1.86692 c -1.30431,0.36725 -1.50423,1.17627 -1.46526,1.9646 0.0421,0.84712 0.84202,1.77717 2.22494,1.45419 0.57971,-0.13536 1.08994,-0.75599 0.97313,-1.9297 -0.11051,-1.11072 -0.75408,-1.76462 -1.73281,-1.48909 z m 66.32227,15.13449 c 2.2389,0.12853 1.8626,0.41391 2.031,4.06636 l 0.025,3.53172 -8.0713,0.13258 c -13.4453,0.22085 -23.7682,0.72517 -38.0372,0.14293 -0.8486,0.0846 -0.8521,-0.0588 -0.8879,-4.15573 -0.029,-3.39416 -0.1695,-4.67853 0.3792,-4.67139 l 17.5243,0.22756 c 9.8107,0.65909 18.6666,0.42538 27.0369,0.72597 z m -149.79139,-1.48826 28.44557,0.98414 29.49723,0.0147 0.3469,2.53255 c -0.0398,1.38895 0.65562,0.84423 0.55295,3.64301 -0.0829,2.26161 -0.46556,1.6553 -1.32035,1.95547 -0.82249,0.28884 -14.37907,0.41202 -30.39364,0.20001 l -26.92051,-0.35639 c 0.13888,-3.59263 -0.40491,-5.563 -0.20815,-8.97344 z m 100.13069,0.38712 c 0.5587,0.0146 0.7566,0.30472 0.8294,1.40912 l 0.3588,5.44576 c 0.2229,2.98958 -0.9647,2.73044 -1.9008,2.89875 -4.3759,0.78674 -3.5718,-1.70272 -3.9331,-4.30622 -0.1867,-1.34486 -0.4769,-3.03089 -0.6454,-3.74588 -0.2251,-0.95527 0.5497,-1.34531 2.9254,-1.4734 0.9924,0.0146 1.8071,-0.24318 2.3657,-0.22806 z m -35.9275,0.0958 c 0.31911,0.01 0.6747,0.044 1.06883,0.10584 1.39859,0.21976 1.78178,-0.41779 1.85781,4.36223 0.0747,4.69908 0.62639,5.52297 -2.89116,5.32786 -2.86237,-0.15878 -2.35058,-1.8127 -2.40152,-5.09686 -0.056,-3.61037 0.13219,-4.75941 2.36604,-4.6991 z m 14.40632,0.27982 c 3.78328,0.13976 7.96624,-0.093 10.35668,0.0252 1.1939,0.059 2.8758,1.15872 0.2899,1.51248 -3.27923,0.44857 -12.53465,0.17634 -15.05042,0.0982 -2.01027,-0.0621 -2.51709,-0.16829 -2.50188,-0.97429 0.0219,-1.18932 0.95751,-0.88152 6.90572,-0.66172 z m -5.99708,3.61755 c 2.63556,0.0268 7.35115,0.40516 9.14669,0.35796 1.79561,-0.0474 5.56487,-0.0607 6.98387,-0.14245 2.6633,-0.15341 2.8388,1.43536 1.2793,1.45704 -1.636,0.0219 -7.05577,0.002 -10.90116,-0.0146 l -6.56163,-0.0279 c -0.48116,-0.68426 -0.82326,-1.58239 0.0529,-1.63092 z m 9.39085,3.79039 c 5.09041,-0.0361 9.24861,0.18195 9.23991,0.484 0,0.15635 0.6841,0.71378 -0.7184,0.85581 -4.9011,0.49634 -17.53686,0.41031 -18.03374,-0.11586 -0.93599,-0.99131 0.36677,-1.15916 9.51223,-1.22384 z" transform="translate(418.29192,244.96337) translate(-1303.6742,-881.82222)" fill="#63b5f6"/>
</svg>